<?xml version="1.0" standalone="no"?>
<!DOCTYPE svg PUBLIC "-//W3C//DTD SVG 20010904//EN"
 "http://www.w3.org/TR/2001/REC-SVG-20010904/DTD/svg10.dtd">
<svg version="1.0" xmlns="http://www.w3.org/2000/svg"
 width="737.000000pt" height="600.000000pt" viewBox="0 0 737.000000 600.000000"
 preserveAspectRatio="xMidYMid meet">

<g transform="translate(0.000000,600.000000) scale(0.100000,-0.100000)"
fill="#000000" stroke="none">
<path d="M5068 5943 c-12 -81 -1124 -4741 -1130 -4735 -8 10 -1528 4719 -1528
4737 0 12 -20 15 -109 15 -66 0 -111 -4 -113 -10 -2 -6 -31 -17 -66 -25 -107
-25 -329 -103 -453 -159 -326 -149 -598 -342 -855 -608 -406 -421 -667 -959
-755 -1558 -27 -183 -32 -536 -10 -705 45 -349 136 -652 288 -957 409 -819
1161 -1362 2083 -1503 148 -23 458 -31 615 -16 298 28 555 94 834 213 68 29
128 48 151 48 l38 0 4 58 c2 31 260 1136 573 2455 482 2028 571 2394 581 2375
6 -13 438 -1110 959 -2438 522 -1328 952 -2419 956 -2424 12 -13 195 60 191
76 -11 45 -2025 5154 -2032 5156 -6 2 -10 10 -10 18 0 11 -21 14 -104 14
l-104 0 -4 -27z m-3022 -535 c-57 -167 -366 -1083 -687 -2035 -321 -953 -587
-1733 -591 -1733 -3 0 -43 55 -87 121 -91 136 -221 393 -276 543 -316 865
-160 1825 415 2546 242 303 578 562 941 725 94 43 350 134 376 135 7 0 -29
-120 -91 -302z m1048 -2278 c398 -1235 727 -2255 730 -2267 6 -19 -3 -25 -96
-61 -298 -116 -542 -168 -848 -179 -686 -24 -1341 229 -1853 718 l-98 94 184
545 c101 300 413 1224 693 2054 l508 1508 28 -83 c15 -46 353 -1094 752 -2329z"/>
</g>
</svg>
