<?xml version="1.0" encoding="utf-8"?>
<!-- Generator: Adobe Illustrator 26.2.1, SVG Export Plug-In . SVG Version: 6.00 Build 0)  -->
<svg version="1.1" id="Layer_1" xmlns="http://www.w3.org/2000/svg" xmlns:xlink="http://www.w3.org/1999/xlink" x="0px" y="0px"
	 viewBox="0 0 602.5 558.2" style="enable-background:new 0 0 602.5 558.2;" xml:space="preserve">
<g>
	<path d="M529.9,291.9c0-0.2,0-0.4,0-0.6c0-0.1,0-0.3,0-0.5c0.1-1.8-0.3-4.2-3.1-6.1c-2.1-1.5-4.3-3-6.4-4.5l-9.1-6.5
		c-4.5-3.1-9-6.4-13.4-9.5l-0.3-0.2c-0.4-0.3-1-0.7-1.7-1.1c-1.5-0.8-3.4-0.9-5.1-0.2c-1.6,0.7-2.7,2.1-2.9,3.8l0,0
		c-0.1,0.8-0.1,1.6-0.1,2.2c0,0.2,0,0.4,0,0.6c0,83.3,0,166.7,0,250c-124.3,0-248.7,0-373,0c0-83.3,0-166.8,0-250.1v-0.6
		c0-0.6,0-1.4,0-2.1v-0.1c-0.1-1.8-1.2-3.3-2.8-4.1c-1.7-0.8-3.7-0.7-5.3,0.2c-0.4,0.3-0.8,0.5-1.1,0.7c-1.2,0.8-2.4,1.7-3.6,2.6
		c-1,0.7-1.9,1.4-2.9,2.1c-2.4,1.8-4.9,3.4-7.3,5.2c-4.8,3.4-9.8,6.8-14.7,10.3c-0.4,0.3-0.7,0.6-1,0.7c-2.9,1.9-3.4,3.3-3.3,6.4
		c0,0.3,0,0.6,0,0.9v234.1l0,0v32.6h457.4v-32.6l0,0C529.9,447.7,529.9,369.8,529.9,291.9z"/>
	<path d="M591.5,215c-7.6-5.9-15.3-11.7-22.9-17.6c-2.4-1.9-4.9-3.7-7.3-5.6c-2.4-1.8-4.8-3.7-7.2-5.5c-2.6-2-5.2-4-7.8-6
		c-3.5-2.7-7.1-5.5-10.6-8.2c-4.6-3.5-9.3-7.1-13.9-10.6c-3.6-2.8-7.3-5.5-10.9-8.3c-4.6-3.6-9.3-7.1-13.9-10.7l-8-6.2
		c-3.7-2.8-7.3-5.6-11-8.4c-3.6-2.7-7.1-5.4-10.7-8.2l-7.8-6c-3.5-2.7-7.1-5.4-10.6-8.2c-3.1-2.4-6.2-4.8-9.3-7.1
		c-3.1-2.4-6.2-4.7-9.3-7.1c-4.1-3.2-8.2-6.3-12.4-9.5c-4.1-3.2-8.3-6.3-12.4-9.5c-2-1.5-10-7.6-20.4-15.6
		c-24.2-18.5-60.7-46.4-66-50.5S307.8,0,301.5-0.2c-6.9-0.1-13.2,2-19,6.5C279.3,9,104.6,142.6,38.9,192.9l-27.3,20.9
		c-4.3,3.3-7.5,7.3-9.2,11.9c-4,10.2-2.7,20.5,3.8,28.8c6.7,8.6,16.2,12.4,27.5,10.8c4.7-0.7,9.2-2.7,13.7-6.1
		C53.5,254.5,268,90.3,301,65.2c8.3,6.4,26.3,20.2,42.6,32.6c14.9,11.4,28.3,21.7,31.7,24.3c4.1,3.1,8.2,6.3,12.3,9.4
		c4.1,3.1,8.2,6.3,12.3,9.4c5.6,4.3,11.2,8.6,16.8,12.8c4.1,3.1,8.2,6.3,12.3,9.4c3.1,2.4,6.2,4.7,9.3,7.1c3.2,2.4,6.4,4.9,9.5,7.3
		c4.1,3.1,8.2,6.3,12.3,9.4c4.1,3.1,8.2,6.3,12.3,9.4c3.7,2.8,7.4,5.6,11,8.4l7.4,5.6c3.1,2.3,6.1,4.7,9.2,7c4,3,7.9,6.1,11.9,9.1
		l29.7,22.7c4.6,3.5,9.1,7,13.7,10.5l0.1,0.1c1.6,1.2,3.7,2.8,6.3,3.9c4.2,1.8,8.4,2.6,12.4,2.6c6.7,0,13-2.4,18.4-7
		c6.6-5.6,10.3-13.8,10-22.5C602.3,228.3,598.2,220.1,591.5,215z"/>
	<path d="M141.8,425.1c4.2,7.4,9.1,14.2,14.6,20.4c9,10,19.4,18.5,32,26c6.4,3.9,13.4,7.4,20.6,10.5c11.4,4.9,23.6,8.7,36.3,11.5
		c7.6,1.7,15.5,3,23.3,4c9.1,1.1,18,1.3,26.4,1.5h0.1h0.1c1.7,0,4.2-0.1,6.7-0.2c7.9-0.2,15.2-0.8,22.3-1.9
		c12.6-1.9,24.2-4.6,35.2-8.4c7.7-2.6,15.2-5.7,22.2-9.1c6.1-3,11.9-6.3,17.4-9.8c7-4.5,13.6-9.3,19.6-14.3
		c8-6.7,15.5-14.3,22.4-22.4c6.2-7.4,11.3-14.8,15.6-22.5c1.8-3.3,3.5-6.7,5.3-10.6c2.5-5.4,4.6-11.3,6.3-17.4
		c2.5-9.2,3.9-17.8,4-26.3c0.1-2.8,0.1-6.1-0.2-9.6c-0.5-6.2-5.3-11-11.7-11.7c-5.9-0.6-11.5,3.2-13.4,9c-0.1,0.3-0.2,0.7-0.3,1
		c0,0.2-0.1,0.3-0.1,0.5c-2.2,8-5,15.1-8.4,21.8c-3.8,7.3-8.4,14.3-13.8,20.9c-7.7,9.4-16.9,18-27.3,25.6
		c-10.1,7.4-20.7,13.6-31.3,18.4c-7.1,3.2-14.7,5.9-23.4,8.4c-6.9,1.9-14.4,3.4-23.5,4.7c-11,1.5-22.4,2-34.8,1.6
		c-8.9-0.3-17.8-1.1-26.3-2.5c-14.8-2.3-26-4.8-36.1-8.1c-7.5-2.4-14.6-5.3-21.3-8.6c-9-4.5-17.2-9.7-24.3-15.6
		c-6.3-5.2-11.8-10.8-16.4-16.7c-1.1-1.4-2.1-2.8-3.1-4.2c-0.6-0.8-1.2-1.7-1.8-2.5c-3-4.1-7.4-6-12.4-5.3c-3.5,0.5-6.6,2.3-8.6,5
		c-2.1,2.7-2.9,6.2-2.4,9.7c0.3,2,0.8,3.8,1.3,5.4C134.7,410.8,137.8,418.2,141.8,425.1z"/>
</g>
</svg>
